<svg width="25" height="30" viewBox="0 0 25 30" fill="none" xmlns="http://www.w3.org/2000/svg">
<path d="M7.54634 10.3989H10.16V20.6262C10.1552 21.5637 9.95638 22.3709 9.56339 23.048C9.1704 23.7204 8.62115 24.2388 7.91566 24.6034C7.2149 24.9633 6.39814 25.1432 5.46538 25.1432C4.6131 25.1432 3.84606 24.9917 3.16424 24.6887C2.48716 24.3809 1.94975 23.9263 1.55202 23.325C1.1543 22.7237 0.955433 21.9756 0.955433 21.0807H3.57617C3.58091 21.4737 3.66613 21.8122 3.83185 22.0963C4.00231 22.3804 4.23668 22.5982 4.53498 22.7497C4.83327 22.9012 5.17655 22.977 5.56481 22.977C5.98621 22.977 6.34369 22.8894 6.63725 22.7142C6.93081 22.5343 7.15335 22.2691 7.30487 21.9188C7.46112 21.5684 7.54161 21.1375 7.54634 20.6262V10.3989ZM17.7346 25.1574C16.6408 25.1574 15.6962 24.9301 14.9007 24.4756C14.11 24.0163 13.5016 23.3676 13.0755 22.5296C12.6493 21.6868 12.4363 20.6948 12.4363 19.5537C12.4363 18.4316 12.6493 17.4467 13.0755 16.5992C13.5063 15.7469 14.1077 15.084 14.8794 14.6105C15.6512 14.1323 16.5579 13.8932 17.5996 13.8932C18.272 13.8932 18.9064 14.0021 19.503 14.2199C20.1043 14.433 20.6346 14.7644 21.0939 15.2142C21.5579 15.664 21.9225 16.2369 22.1877 16.933C22.4528 17.6243 22.5854 18.4481 22.5854 19.4046V20.1929H13.6436V18.46H20.1209C20.1162 17.9675 20.0096 17.5296 19.8013 17.146C19.593 16.7578 19.3018 16.4524 18.9277 16.2298C18.5584 16.0073 18.1275 15.896 17.6351 15.896C17.1096 15.896 16.6479 16.0239 16.2502 16.2796C15.8525 16.5305 15.5423 16.8619 15.3198 17.2739C15.102 17.6811 14.9907 18.1285 14.986 18.6162V20.129C14.986 20.7635 15.102 21.308 15.334 21.7625C15.566 22.2123 15.8903 22.558 16.307 22.7994C16.7237 23.0362 17.2114 23.1546 17.7701 23.1546C18.1441 23.1546 18.4827 23.1025 18.7857 22.9983C19.0887 22.8894 19.3515 22.7308 19.574 22.5225C19.7966 22.3141 19.9647 22.0561 20.0783 21.7483L22.4789 22.0182C22.3274 22.6527 22.0385 23.2066 21.6124 23.6801C21.191 24.1489 20.6512 24.5135 19.9931 24.7739C19.3349 25.0296 18.5821 25.1574 17.7346 25.1574Z" fill="white"/>
<path d="M2.26972 12.5337L13.4315 10.4943C13.9984 8.70917 12.9446 7.45974 12.9446 7.45974C15.03 6.54046 16.5554 8.75707 16.9596 9.04869C17.0395 9.10727 17.3275 8.66049 17.3275 8.66049C14.3136 -4.99257 -3.58398 2.55718 2.26972 12.5337Z" fill="#ED5564"/>
<path d="M18.5415 8.63118C18.6605 9.40485 18.1153 10.1265 17.3233 10.2428C16.5307 10.3592 15.7917 9.82615 15.6727 9.05245C15.5536 8.27878 16.0994 7.55704 16.892 7.44065C17.684 7.32435 18.4224 7.85752 18.5415 8.63118Z" fill="#E6E9ED"/>
<path d="M14.4631 10.7283C14.3982 10.3066 13.9958 10.0163 13.5645 10.0796L2.21879 11.7456C1.7873 11.809 1.49009 12.202 1.55499 12.6237L1.85914 14.6C1.92397 15.0212 2.32635 15.3115 2.75784 15.2481L14.1036 13.5821C14.5348 13.5188 14.832 13.1257 14.7672 12.7045L14.4631 10.7283Z" fill="#E6E9ED"/>
<path d="M12.5515 12.6154C12.354 12.6444 12.2175 12.825 12.2473 13.0184L12.3731 13.8357L13.09 13.7304L12.9642 12.9131C12.9344 12.7197 12.7501 12.5862 12.5515 12.6154Z" fill="#CCD1D9"/>
<path d="M9.68266 13.0372C9.48463 13.0663 9.34838 13.2468 9.37815 13.4403L9.50393 14.2575L10.2208 14.1523L10.0951 13.335C10.0653 13.1416 9.88066 13.0081 9.68266 13.0372Z" fill="#CCD1D9"/>
<path d="M6.81551 13.4581C6.61748 13.4872 6.48119 13.6677 6.51096 13.8612L6.63674 14.6784L7.35369 14.5732L7.22791 13.7559C7.19814 13.5624 7.0135 13.429 6.81551 13.4581Z" fill="#CCD1D9"/>
<path d="M3.94637 13.879C3.74834 13.9081 3.61205 14.0886 3.64182 14.2821L3.7676 15.0993L4.48482 14.994L4.35904 14.1767C4.32927 13.9833 4.14439 13.8499 3.94637 13.879Z" fill="#CCD1D9"/>
</svg>
